# AST/ASF file generated using VICON BodyLanguage
# -----------------------------------------------
:version 1.10
:name VICON
:units
  mass 1.0
  length 0.45
  angle deg
:documentation
   .ast/.asf automatically generated from VICON data using
   VICON BodyBuilder and BodyLanguage model FoxedUp or BRILLIANT.MOD
:root
   order TX TY TZ RX RY RZ
   axis XYZ
   position 0 0 0  
   orientation 0 0 0 
:bonedata
  begin
     id 1 
     name lhipjoint
     direction 0.661853 -0.702389 0.261917 
     length 2.64193 
     axis 0 0 0  XYZ
  end
  begin
     id 2 
     name lfemur
     direction 0.34202 -0.939693 0  
     length 7.01722  
     axis 0 0 20  XYZ
    dof rx ry rz
    limits (-160.0 20.0)
           (-70.0 70.0)
           (-60.0 70.0)
  end
  begin
     id 3 
     name ltibia
     direction 0.34202 -0.939693 0   
     length 8.25008   
     axis 0 0 20   XYZ
    dof rx
    limits (-10.0 170.0)
  end
  begin
     id 4 
     name lfoot
     direction 0.0709916 -0.195048 0.978221   
     length 2.31941   
     axis -90 7.62852e-016 20   XYZ
    dof rx rz
    limits (-45.0 90.0)
           (-70.0 20.0)
  end
  begin
     id 5 
     name ltoes
     direction 1.53586e-011 -4.22017e-011 1   
     length 1.16486   
     axis -90 7.62852e-016 20   XYZ
    dof rx
    limits (-90.0 20.0)
  end
  begin
     id 6 
     name rhipjoint
     direction -0.638185 -0.721362 0.268992   
     length 2.57244  
     axis 0 0 0  XYZ 
  end
  begin
     id 7 
     name rfemur
     direction -0.34202 -0.939693 0   
     length 7.07017   
     axis 0 0 -20   XYZ
    dof rx ry rz
    limits (-160.0 20.0)
           (-70.0 70.0)
           (-70.0 60.0)
  end
  begin
     id 8 
     name rtibia
     direction -0.34202 -0.939693 0   
     length 8.20386   
     axis 0 0 -20   XYZ
    dof rx
    limits (-10.0 170.0)
 end
 begin
     id 9 
     name rfoot
     direction -0.0822429 -0.225961 0.970658   
     length 2.32215  
     axis -90 -7.62852e-016 -20   XYZ
    dof rx rz
    limits (-45.0 90.0)
           (-20.0 70.0)
  end
  begin
     id 10 
     name rtoes
     direction -1.53597e-011 -4.21689e-011 1   
     length 1.16333   
     axis -90 -7.62852e-016 -20   XYZ
    dof rx
    limits (-90.0 20.0)
  end
  begin
     id 11 
     name lowerback
     direction -0.0131557 0.998589 -0.0514484   
     length 2.14993   
     axis 0 0 0   XYZ
    dof rx ry rz
    limits (-20.0 45.0)
           (-30.0 30.0)
           (-30.0 30.0)
  end
  begin
     id 12 
     name upperback
     direction -0.000776481 0.999993 0.00352685   
     length 2.15301   
     axis 0 0 0   XYZ
    dof rx ry rz
    limits (-20.0 45.0)
           (-30.0 30.0)
           (-30.0 30.0)
  end
  begin
     id 13 
     name thorax
     direction 0.00438186 0.999609 0.0276143   
     length 2.15424   
     axis 0 0 0   XYZ
    dof rx ry rz
    limits (-20.0 45.0)
           (-30.0 30.0)
           (-30.0 30.0)
  end
  begin
     id 14 
     name lowerneck
     direction -0.0488006 0.998094 0.0377807   
     length 1.90481   
     axis 0 0 0   XYZ
    dof rx ry rz
    limits (-20.0 45.0)
           (-30.0 30.0)
           (-30.0 30.0)
  end
  begin
     id 15 
     name upperneck
     direction 0.0443769 0.990702 -0.12861   
     length 1.91305   
     axis 0 0 0   XYZ
    dof rx ry rz
    limits (-20.0 45.0)
           (-30.0 30.0)
           (-30.0 30.0)
  end
  begin
     id 16
     name head
     direction 0.0165599 0.998647 -0.0492982  
     length 1.92369  
     axis 0 0 0   XYZ
    dof rx ry rz
    limits (-20.0 45.0)
           (-30.0 30.0)
           (-30.0 30.0)
  end
  begin
     id 17 
     name lclavicle
     direction 0.911936 0.410197 -0.0105506  
     length 3.52622  
     axis 0 0 0   XYZ
    dof ry rz
    limits (-20.0 10.0)
           (0.0 20.0)
  end
  begin
     id 18 
     name lhumerus
     direction 1 -4.48974e-011 -2.48591e-028   
     length 5.47651   
     axis 180 -30 -90   XYZ
    dof rx ry rz
    limits (-60.0 90.0)
           (-90.0 90.0)
           (-90.0 90.0)
  end
  begin
     id 19
     name lradius
     direction 1 -4.48938e-011 -4.40099e-027   
     length 3.09058   
     axis 180 -30 -90   XYZ
    dof rx
    limits (-10.0 170.0)
  end
  begin
     id 20
     name lwrist
     direction 1 -4.49042e-011 -2.99852e-027   
     length 1.54529   
     axis 1.95339e-015 90 90   XYZ
    dof ry
    limits (-180.0 0.0)
 end
  begin
     id 21 
     name lhand
     direction 1 -4.48815e-011 -5.98193e-027   
     length 0.771611   
     axis 3.82337e-015 90 90   XYZ
    dof rx rz
    limits (-90.0 90.0)
           (-45.0 45.0)
  end
  begin
     id 22 
     name lfingers
     direction 1 -4.49034e-011 -1.1993e-026   
     length 0.622093   
     axis 7.64668e-015 90 90   XYZ
    dof rx
    limits (0.0 90.0)
  end
  begin
     id 23
     name lthumb
     direction 0.707107 -6.34867e-011 0.707107   
     length 0.893204   
     axis -90 45 -1.62303e-014   XYZ
    dof rx rz
    limits (-45.0 45.0)
           (-45.0 45.0)
  end
  begin
     id 24 
     name rclavicle
     direction -0.93442 0.355634 -0.0195692   
     length 3.62463  
     axis 0 0 0   XYZ 
    dof ry rz
    limits (-10.0 20.0)
           (-20.0 0.0)
  end
  begin
     id 25 
     name rhumerus
     direction -1 -4.48957e-011 -1.19147e-027  
     length 5.14182   
     axis 180 30 90   XYZ
    dof rx ry rz
    limits (-90.0 60.0)
           (-90.0 90.0)
           (-90.0 90.0)
  end
  begin
     id 26 
     name rradius
     direction -1 -4.48952e-011 -3.81062e-027   
     length 3.35565   
     axis 180 30 90   XYZ
    dof rx
    limits (-10.0 170.0)
  end
  begin
     id 27 
     name rwrist
     direction -1 -4.48973e-011 -2.99621e-027   
     length 1.67782   
     axis 1.95339e-015 -90 -90   XYZ
    dof ry
    limits (-180.0 0.0)
  end
  begin
     id 28
     name rhand
     direction -1 -4.48895e-011 -5.98727e-027   
     length 0.801042   
     axis 3.82337e-015 -90 -90   XYZ
    dof rx rz
    limits (-90.0 90.0)
           (-45.0 45.0)
  end
  begin
     id 29
     name rfingers
     direction -1 -4.49065e-011 -1.19972e-026   
     length 0.645821   
     axis 7.64668e-015 -90 -90   XYZ
    dof rx
    limits (0.0 90.0)
  end
  begin
     id 30
     name rthumb
     direction -0.707107 -6.34957e-011 0.707107   
     length 0.927273   
     axis -90 -45 1.62303e-014   XYZ
    dof rx rz
    limits (-45.0 45.0)
           (-45.0 45.0)
  end
:hierarchy
  begin
    root lhipjoint rhipjoint lowerback
    lhipjoint lfemur
    lfemur ltibia
    ltibia lfoot
    lfoot ltoes
    rhipjoint rfemur
    rfemur rtibia
    rtibia rfoot
    rfoot rtoes
    lowerback upperback
    upperback thorax
    thorax lowerneck lclavicle rclavicle
    lowerneck upperneck
    upperneck head
    lclavicle lhumerus
    lhumerus lradius
    lradius lwrist
    lwrist lhand lthumb
    lhand lfingers
    rclavicle rhumerus
    rhumerus rradius
    rradius rwrist
    rwrist rhand rthumb
    rhand rfingers
  end

#!OML:ASF E:\Style4\Style4.ASF
:FULLY-SPECIFIED
:DEGREES
556
root 1.12326 17.2304 -3.02613 9.94902 -6.58092 -5.98652
lowerback 20.1394 1.30321 -5.77115
upperback 13.6604 0.722884 -0.134111
thorax 3.57435 -0.0709309 2.98512
lowerneck 4.5813 -0.230929 -2.94266
upperneck -3.70905 -0.155521 7.49547
head -1.98767 -0.224285 2.95815
rclavicle -1.59028e-014 4.77083e-015
rhumerus 4.0087 -30.5501 -10.9273
rradius 20.3884
rwrist 21.2294
rhand 8.43419 -0.675989
rfingers 7.12502
rthumb 33.6398 -27.539
lclavicle -1.59028e-014 4.77083e-015
lhumerus 14.5078 -70.793 77.3739
lradius 69.5417
lwrist 37.0901
lhand -3.09776 36.6741
lfingers 7.12502
lthumb 22.6201 65.3687
rfemur -37.0399 -2.28311 23.3444
rtibia 43.647
rfoot -13.5388 -2.96421
rtoes -12.6735
lfemur -38.3912 4.65326 -16.5352
ltibia 50.5599
lfoot -22.5836 8.65748
ltoes -9.19412
557
root 1.12308 17.2223 -3.02645 9.94863 -6.19371 -5.92834
lowerback 20.1962 1.35924 -5.68279
upperback 13.6522 0.808342 0.0531885
thorax 3.52616 -0.0276396 3.12181
lowerneck 4.62586 -0.423252 -2.77312
upperneck -3.87 -0.401395 7.34325
head -2.03227 -0.348908 2.88467
rclavicle -2.22639e-014 -1.59028e-014
rhumerus 4.21737 -31.6883 -11.1227
rradius 20.4124
rwrist 21.3968
rhand 5.13213 0.0302417
rfingers 7.12502
rthumb 30.496 -27.4661
lclavicle -2.22639e-014 -1.59028e-014
lhumerus 14.8401 -71.8452 76.7587
lradius 70.6202
lwrist 35.6874
lhand -3.08283 36.1594
lfingers 7.12502
lthumb 22.6345 64.8522
rfemur -37.1676 -2.6332 23.3386
rtibia 43.943
rfoot -13.7172 -3.05148
rtoes -12.5997
lfemur -38.5428 4.46487 -16.5852
ltibia 50.6678
lfoot -22.5385 8.45716
ltoes -9.09266
558
root 1.12606 17.2111 -3.02945 9.98783 -5.86654 -5.80741
lowerback 20.2441 1.40864 -5.60456
upperback 13.6277 0.883778 0.186403
thorax 3.46536 0.0132189 3.20771
lowerneck 4.49281 -0.620789 -2.63882
upperneck -3.82962 -0.665263 7.20786
head -1.97833 -0.476211 2.81839
rclavicle -1.82882e-014 -2.14687e-014
rhumerus 4.34967 -32.4014 -11.3117
rradius 20.5089
rwrist 21.0427
rhand 1.73282 0.555076
rfingers 7.12502
rthumb 27.249 -27.4965
lclavicle -1.82882e-014 -2.14687e-014
lhumerus 15.4776 -72.8606 75.8329
lradius 71.6699
lwrist 34.624
lhand -3.12205 35.7022
lfingers 7.12502
lthumb 22.5968 64.3996
rfemur -37.398 -2.95855 23.2443
rtibia 44.2639
rfoot -13.8784 -3.07802
rtoes -12.5188
lfemur -38.7588 4.26699 -16.7182
ltibia 50.7749
lfoot -22.4175 8.20228
ltoes -8.22709
559
root 1.12762 17.199 -3.03204 9.97924 -5.51324 -5.70496
lowerback 20.337 1.43843 -5.57726
upperback 13.6445 0.924487 0.363798
thorax 3.43244 0.029167 3.37544
lowerneck 4.24225 -0.779652 -2.60642
upperneck -3.7478 -0.885052 7.07028
head -1.89297 -0.577336 2.76645
rclavicle -3.18055e-015 1.43125e-014
rhumerus 4.72554 -33.4002 -11.7244
rradius 20.5941
rwrist 20.914
rhand -1.56206 1.04373
rfingers 7.12502
rthumb 24.0934 -27.4636
lclavicle -3.18055e-015 1.43125e-014
lhumerus 16.4575 -73.6606 74.6414
lradius 72.6395
lwrist 33.9644
lhand -3.23097 35.1642
lfingers 7.12502
lthumb 22.4923 63.8743
rfemur -37.5672 -3.23748 23.1546
rtibia 44.5926
rfoot -14.067 -3.181
rtoes -12.5094
lfemur -38.9245 4.0621 -16.8207
ltibia 50.9086
lfoot -22.3765 8.00423
ltoes -7.81769
560
root 1.12698 17.1868 -3.03252 9.94672 -5.1548 -5.53765
lowerback 20.4076 1.47186 -5.65797
upperback 13.6793 0.95562 0.551892
thorax 3.43308 0.0312358 3.61774
lowerneck 4.05575 -0.874874 -2.61155
upperneck -3.79795 -1.01545 6.92634
head -1.86787 -0.636347 2.72003
rclavicle -1.59028e-015 6.36111e-015
rhumerus 5.46157 -35.1572 -12.5191
rradius 20.4365
rwrist 21.3363
rhand -4.81876 2.14921
rfingers 7.12502
rthumb 20.9675 -26.7375
lclavicle -1.59028e-015 6.36111e-015
lhumerus 17.6245 -74.3994 73.2484
lradius 73.5632
lwrist 33.5212
lhand -3.52238 34.5248
lfingers 7.12502
lthumb 22.2125 63.2684
rfemur -37.7168 -3.52103 22.9972
rtibia 44.9489
rfoot -14.3116 -3.29188
rtoes -12.5857
lfemur -39.0642 3.86463 -16.9933
ltibia 51.0713
lfoot -22.3976 7.83294
ltoes -7.78286
561
root 1.12328 17.1711 -3.03767 10.0213 -4.72799 -5.50906
lowerback 20.4213 1.45778 -5.57571
upperback 13.6529 0.953502 0.762524
thorax 3.39425 0.0293858 3.79825
lowerneck 3.99759 -0.945554 -2.65876
upperneck -3.9166 -1.11181 6.81033
head -1.89059 -0.681524 2.69313
rclavicle -7.95139e-016 1.35174e-014
rhumerus 6.34705 -36.8635 -13.5052
rradius 20.193
rwrist 21.717
rhand -8.11768 3.55846
rfingers 7.12502
rthumb 17.7956 -25.6473
lclavicle -7.95139e-016 1.35174e-014
lhumerus 18.3699 -74.9918 72.2549
lradius 74.4584
lwrist 33.2464
lhand -3.46235 34.0135
lfingers 7.12502
lthumb 22.2702 62.7503
rfemur -37.9926 -3.73461 23.0024
rtibia 45.3233
rfoot -14.537 -3.47908
rtoes -12.3599
lfemur -39.3858 3.6599 -16.9977
ltibia 51.2718
lfoot -22.3177 7.61352
ltoes -7.69876
562
root 1.11613 17.1504 -3.04822 10.2177 -4.24382 -5.4831
lowerback 20.3448 1.4411 -5.45858
upperback 13.5827 0.958997 0.977442
thorax 3.34962 0.0352959 3.96273
lowerneck 4.02813 -1.0961 -2.72182
upperneck -4.0905 -1.31167 6.76373
head -1.9422 -0.781939 2.69776
rclavicle 2.54444e-014 2.38542e-014
rhumerus 7.17889 -38.5209 -14.5591
rradius 20.0488
rwrist 22.1343
rhand -11.1653 4.65078
rfingers 7.12502
rthumb 14.8612 -24.7962
lclavicle 2.54444e-014 2.38542e-014
lhumerus 19.0598 -75.5625 71.3467
lradius 75.3073
lwrist 33.0639
lhand -3.04832 33.8884
lfingers 7.12502
lthumb 22.6676 62.5771
rfemur -38.418 -3.9225 23.0307
rtibia 45.6928
rfoot -14.7275 -3.74253
rtoes -12.3865
lfemur -39.8962 3.44529 -16.9891
ltibia 51.4787
lfoot -22.1646 7.4146
ltoes -7.755
563
root 1.11053 17.1368 -3.05593 10.2346 -3.78395 -5.30245
lowerback 20.4308 1.4974 -5.44664
upperback 13.6099 1.0342 1.1729
thorax 3.32787 0.0668349 4.15339
lowerneck 4.01427 -1.30953 -2.89307
upperneck -4.38732 -1.59043 6.84984
head -2.02163 -0.924056 2.77119
rclavicle -3.97569e-015 -9.54166e-015
rhumerus 7.59097 -39.9629 -15.3404
rradius 20.0792
rwrist 22.1375
rhand -14.42 6.34088
rfingers 7.12502
rthumb 11.7241 -23.311
lclavicle -3.97569e-015 -9.54166e-015
lhumerus 20.6626 -76.1848 69.5887
lradius 76.0763
lwrist 32.7334
lhand -2.66772 33.68
lfingers 7.12502
lthumb 23.0328 62.3236
rfemur -38.6333 -4.23235 22.8945
rtibia 46.052
rfoot -14.9375 -3.93539
rtoes -12.6594
lfemur -40.1362 3.22617 -17.1539
ltibia 51.6509
lfoot -22.1245 7.19748
ltoes -7.93781
564
root 1.10755 17.1298 -3.05743 10.0401 -3.37841 -5.15909
lowerback 20.7008 1.58259 -5.40932
upperback 13.7373 1.14052 1.39109
thorax 3.32367 0.110702 4.34826
lowerneck 3.73534 -1.59928 -3.24275
upperneck -4.42303 -1.98609 7.04229
head -1.95861 -1.11638 2.90656
rclavicle 7.95139e-016 2.78299e-015
rhumerus 7.89558 -41.3792 -16.1058
rradius 20.2695
rwrist 21.976
rhand -17.6069 8.57301
rfingers 7.12502
rthumb 8.64969 -21.2298
lclavicle 7.95139e-016 2.78299e-015
lhumerus 23.0062 -76.6913 67.1253
lradius 76.8152
lwrist 32.3766
lhand -2.2639 33.5047
lfingers 7.12502
lthumb 23.4203 62.0995
rfemur -38.5596 -4.56849 22.7675
rtibia 46.3979
rfoot -15.214 -4.02351
rtoes -12.6119
lfemur -40.0753 3.04777 -17.2944
ltibia 51.7882
lfoot -22.0991 7.0677
ltoes -8.35673
565
root 1.10377 17.1166 -3.06236 9.95366 -2.96454 -5.04793
lowerback 20.8868 1.64996 -5.34757
upperback 13.7912 1.23208 1.60331
thorax 3.27942 0.152375 4.52543
lowerneck 3.47436 -1.92197 -3.48185
upperneck -4.3704 -2.42675 7.1477
head -1.86599 -1.33016 2.99001
rclavicle -3.18055e-015 2.0276e-014
rhumerus 8.44179 -42.7215 -17.0988
rradius 20.4017
rwrist 22.0209
rhand -20.3693 10.1511
rfingers 7.12502
rthumb 5.98329 -19.7444
lclavicle -3.18055e-015 2.0276e-014
lhumerus 25.1634 -77.1939 64.8008
lradius 77.568
lwrist 32.5779
lhand -2.06727 33.4773
lfingers 7.12502
lthumb 23.6089 62.0479
rfemur -38.6394 -4.87112 22.6807
rtibia 46.7563
rfoot -15.3871 -4.13959
rtoes -12.658
lfemur -40.184 2.83575 -17.3877
ltibia 51.9343
lfoot -22.1018 6.80847
ltoes -7.9259
566
root 1.10078 17.099 -3.06948 9.94572 -2.56867 -4.88094
lowerback 20.9644 1.74939 -5.15143
upperback 13.7602 1.39159 1.74105
thorax 3.18435 0.245175 4.53291
lowerneck 3.54885 -2.29038 -3.53371
upperneck -4.38832 -2.9278 7.08653
head -1.85528 -1.57959 2.99097
rclavicle 1.15295e-014 5.56597e-015
rhumerus 8.72504 -43.9508 -17.9699
rradius 20.4677
rwrist 22.2613
rhand -22.9462 11.2752
rfingers 7.12502
rthumb 3.49509 -18.6759
lclavicle 1.15295e-014 5.56597e-015
lhumerus 27.5653 -77.9616 62.2083
lradius 78.2467
lwrist 32.9827
lhand -2.0829 33.3701
lfingers 7.12502
lthumb 23.5939 61.9427
rfemur -38.8643 -5.14714 22.5301
rtibia 47.1406
rfoot -15.553 -4.25028
rtoes -12.4875
lfemur -40.3982 2.59563 -17.5485
ltibia 52.0992
lfoot -22.0686 6.66162
ltoes -7.87298
